<svg id="Layer_1" data-name="Layer 1" xmlns="http://www.w3.org/2000/svg" viewBox="0 0 766.23 800.43"><defs><style>.cls-1{fill:#fff;}</style></defs><path class="cls-1" d="M744,799.93a38.88,38.88,0,0,1-28.36-12.34L436.65,488l-.36.24A267.38,267.38,0,0,1,95.81,78.81,267.36,267.36,0,0,1,493.66,434.9l-.27.34,279,299.53A38.75,38.75,0,0,1,744,799.93ZM284.88,58.06c-115.7,0-209.82,94.12-209.82,209.82S169.18,477.7,284.88,477.7,494.7,383.57,494.7,267.88,400.57,58.06,284.88,58.06Z" transform="translate(-17 0)"/><path d="M284.88,1A266.77,266.77,0,0,1,493.27,434.59l-.54.67.59.63L772,735.11a38.25,38.25,0,0,1-56,52.14L437.31,488l-.59-.63-.71.49A266.9,266.9,0,1,1,181,22,265.3,265.3,0,0,1,284.88,1m0,477.2c116,0,210.32-94.35,210.32-210.32S400.85,57.56,284.88,57.56,74.56,151.91,74.56,267.88,168.91,478.2,284.88,478.2m0-478.2C136.93,0,17,119.93,17,267.88S136.93,535.76,284.88,535.76a266.59,266.59,0,0,0,151.69-47.09L715.26,787.93a39.25,39.25,0,1,0,57.44-53.5L494.05,435.21a266.71,266.71,0,0,0,58.71-167.33C552.76,119.93,432.82,0,284.88,0Zm0,477.2c-115.61,0-209.32-93.72-209.32-209.32S169.27,58.56,284.88,58.56,494.2,152.27,494.2,267.88,400.48,477.2,284.88,477.2Z" transform="translate(-17 0)"/></svg>